HIERARCHY
ROOT RootJoint
{
    OFFSET   0.000000   0.000000   0.000000
    CHANNELS 6 Xposition Yposition Zposition Xrotation Yrotation Zrotation
    JOINT pelvis_lowerback
    {
        OFFSET   0.000000   0.093605   0.000000
        CHANNELS 3 Xrotation Yrotation Zrotation
        JOINT lowerback_torso
        {
            OFFSET   0.000000   0.100000   0.000000
            CHANNELS 3 Xrotation Yrotation Zrotation
            JOINT torso_head
            {
                OFFSET   0.000000   0.282350   0.000000
                CHANNELS 3 Xrotation Yrotation Zrotation
                End Site
                {
                    OFFSET   0.000000   0.192650   0.000000
                }
            }
            JOINT rTorso_Clavicle
            {
                OFFSET  -0.001000   0.157500   0.000000
                CHANNELS 3 Xrotation Yrotation Zrotation
                JOINT rShoulder
                {
                    OFFSET  -0.117647   0.000000   0.000000
                    CHANNELS 3 Xrotation Yrotation Zrotation
                    JOINT rElbow
                    {
                        OFFSET  -0.245000   0.000000   0.000000
                        CHANNELS 3 Xrotation Yrotation Zrotation
                        JOINT rWrist
                        {
                            OFFSET  -0.240000   0.000000   0.000000
                            CHANNELS 3 Xrotation Yrotation Zrotation
                            End Site
                            {
                                OFFSET  -0.116353  -0.002500   0.000000
                            }
                        }
                    }
                }
            }
            JOINT lTorso_Clavicle
            {
                OFFSET   0.001000   0.157500   0.000000
                CHANNELS 3 Xrotation Yrotation Zrotation
                JOINT lShoulder
                {
                    OFFSET   0.117647   0.000000   0.000000
                    CHANNELS 3 Xrotation Yrotation Zrotation
                    JOINT lElbow
                    {
                        OFFSET   0.245000   0.000000   0.000000
                        CHANNELS 3 Xrotation Yrotation Zrotation
                        JOINT lWrist
                        {
                            OFFSET   0.240000   0.000000   0.000000
                            CHANNELS 3 Xrotation Yrotation Zrotation
                            End Site
                            {
                                OFFSET   0.116353  -0.002500   0.000000
                            }
                        }
                    }
                }
            }
        }
    }
    JOINT rHip
    {
        OFFSET  -0.100000  -0.051395   0.000000
        CHANNELS 3 Xrotation Yrotation Zrotation
        JOINT rKnee
        {
            OFFSET   0.000000  -0.410000   0.000000
            CHANNELS 3 Xrotation Yrotation Zrotation
            JOINT rAnkle
            {
                OFFSET   0.000000  -0.390000   0.000000
                CHANNELS 3 Xrotation Yrotation Zrotation
                JOINT rToeJoint
                {
                    OFFSET   0.000000  -0.050000   0.130000
                    CHANNELS 3 Xrotation Yrotation Zrotation
                    End Site
                    {
                        OFFSET  -0.010000   0.002000   0.060000
                    }
                }
            }
        }
    }
    JOINT lHip
    {
        OFFSET   0.100000  -0.051395   0.000000
        CHANNELS 3 Xrotation Yrotation Zrotation
        JOINT lKnee
        {
            OFFSET   0.000000  -0.410000   0.000000
            CHANNELS 3 Xrotation Yrotation Zrotation
            JOINT lAnkle
            {
                OFFSET   0.000000  -0.390000   0.000000
                CHANNELS 3 Xrotation Yrotation Zrotation
                JOINT lToeJoint
                {
                    OFFSET   0.000000  -0.050000   0.130000
                    CHANNELS 3 Xrotation Yrotation Zrotation
                    End Site
                    {
                        OFFSET   0.010000   0.002000   0.060000
                    }
                }
            }
        }
    }
}
MOTION
Frames: 15
Frame Time:   0.008333
 -2.376719   0.925631   3.975860   0.000000   0.000000   0.000000   0.000000   0.000000   0.000000   0.000000   0.000000   0.000000   0.000000   0.000000   0.000000   0.000000   0.000000   0.000000   0.000000   0.000000   0.000000   0.000000   0.000000   0.000000   0.000000   0.000000   0.000000   0.000000   0.000000   0.000000   0.000000   0.000000   0.000000   0.000000   0.000000   0.000000   0.000000   0.000000   0.000000   0.000000   0.000000   0.000000   0.000000   0.000000   0.000000   0.000000   0.000000   0.000000   0.000000   0.000000   0.000000   0.000000   0.000000   0.000000   0.000000   0.000000   0.000000   0.000000   0.000000   0.000000   0.000000   0.000000   0.000000
 -2.377307   0.925785   3.974482   1.647824   0.095859  -0.296875  -1.660143  -0.099569   0.079142   0.016155  -0.111196   0.241839  -0.064927   0.255819  -0.028211   0.376414  -0.823360  -0.362648   0.901283   0.396453   2.409648   0.015514   0.849323  -0.009555   0.330840   0.085028  -2.107262   0.455804   0.508186   0.140627   1.380895   0.177977  -2.225164   0.013573  -0.751604   0.012083   0.344375  -0.296821   1.924754  -2.282261  -0.341300   0.464731   0.800539  -0.001221  -0.001617  -0.402890  -0.423245  -0.378665  -0.009160  -0.000016   0.000053  -2.192825   0.232123   0.379859   0.709898  -0.000515   0.002108  -1.293152   0.606200  -0.397559   0.494358   0.001374   0.004054
 -2.378130   0.926137   3.972883   3.267743   0.207049  -0.626321  -3.133370  -0.232472   0.129301   0.034012  -0.252630   0.494156  -0.131777   0.501837  -0.046974   0.734164  -1.717187  -0.133385   1.778207   0.748743   5.275170   0.034182   1.640248  -0.017072   0.704636   0.323776  -3.558454   0.899590   1.075747  -0.277945   2.762197   0.372739  -4.904840   0.029942  -1.440390   0.021456   0.745587  -0.667375   3.214243  -4.572776  -0.702194   1.017916   1.512318  -0.002527  -0.002545  -0.784759  -0.821279  -0.736023  -0.045207  -0.000048   0.000234  -4.336996   0.457539   0.801106   1.326580  -0.000895   0.003710  -2.508512   1.191094  -0.752701   0.877117   0.002054   0.006378
 -2.379057   0.926376   3.971237   4.797386   0.309177  -0.940192  -4.441709  -0.378641   0.146704   0.100957  -0.408227   0.718989  -0.180189   0.731416  -0.066080   1.078066  -2.604245   0.483316   2.628545   1.094008   8.432939   0.051503   2.360511  -0.022337   1.066012   0.501835  -4.359553   1.323195   1.633483  -1.061188   4.139152   0.528420  -7.882611   0.045420  -2.068884   0.028289   1.133684  -0.975274   3.873569  -6.778849  -1.062339   1.581293   2.143729  -0.003629  -0.003015  -1.146081  -1.189267  -1.071580  -0.091684  -0.000057   0.000415  -6.349016   0.657103   1.198347   1.882152  -0.001109   0.004729  -3.642273   1.744578  -1.072029   1.216228   0.002441   0.007716
 -2.380022   0.926789   3.969668   6.240823   0.377718  -1.139206  -5.624009  -0.521765   0.064173   0.199629  -0.564615   0.881657  -0.211071   0.945905  -0.088203   1.414940  -3.453118   1.375976   3.453982   1.461971  11.807538   0.066236   3.023169  -0.025627   1.410440   0.625318  -4.689283   1.728134   2.159915  -2.094419   5.512827   0.617235 -11.076473   0.058883  -2.649219   0.033055   1.504201  -1.239691   4.082639  -8.893143  -1.416909   2.053317   2.708734  -0.004510  -0.003361  -1.485966  -1.530247  -1.387005  -0.133565  -0.000042   0.000536  -8.224827   0.826516   1.510078   2.458363  -0.001434   0.005315  -4.606215   2.257887  -1.352026   1.525411   0.002507   0.008274
 -2.381003   0.927093   3.968212   7.602703   0.430150  -1.302269  -6.698683  -0.671174  -0.030863   0.313163  -0.727216   1.006172  -0.229538   1.145896  -0.113761   1.745357  -4.254981   2.404992   4.253426   1.862934  15.318227   0.077687   3.636041  -0.027295   1.738094   0.716280  -4.684145   2.112819   2.641640  -3.271575   6.880444   0.620906 -14.425671   0.069727  -3.191031   0.036216   1.858217  -1.494736   3.951731 -10.907573  -1.768498   2.512465   3.217394  -0.005197  -0.003538  -1.806150  -1.846577  -1.683235  -0.177106  -0.000011   0.000634  -9.974227   0.984985   1.781212   2.969753  -0.001606   0.005513  -5.531921   2.752199  -1.621717   1.813730   0.002529   0.008458
 -2.381991   0.927257   3.966912   8.885703   0.464346  -1.418866  -7.683915  -0.823385  -0.151163   0.430187  -0.894144   1.098492  -0.238214   1.332519  -0.138924   2.068826  -5.008101   3.506605   5.024957   2.300487  18.920047   0.085920   4.204335  -0.027645   2.049915   0.785837  -4.468307   2.474989   3.077660  -4.524089   8.237363   0.534136 -17.879243   0.077910  -3.699194   0.038095   2.196553  -1.754306   3.602039 -12.818492  -2.114115   2.945902   3.678508  -0.005704  -0.003623  -2.107211  -2.139958  -1.961201  -0.219508   0.000031   0.000703 -11.613485   1.128583   2.000530   3.444259  -0.001682   0.005438  -6.383945   3.219976  -1.871851   2.073522   0.002476   0.008276
 -2.382735   0.926991   3.966005   9.523318   0.520471  -1.354165  -8.174605  -0.885716  -0.369389   0.719430  -1.123475   1.147889  -0.264356   1.339523  -0.220915   2.495849  -5.433578   3.984956   5.967600   2.658090  22.601150   0.094285   4.883070  -0.030936   2.422519   0.822427  -3.236211   2.714718   3.594411  -5.228926   9.560547   0.009929 -21.623041   0.088272  -4.325800   0.041289   2.552008  -1.990459   2.559740 -14.129919  -2.569070   3.228984   4.635543  -0.008138  -0.005607  -2.587631  -2.809578  -2.452719  -0.185905   0.000049   0.000260 -13.374071   1.669209   2.061350   5.688574  -0.002444   0.016987  -8.595080   3.717116  -2.078984   2.169311   0.002136   0.007516
 -2.383367   0.926130   3.965903   9.919373   0.397171  -1.230561  -8.661473  -0.864812  -0.560158   1.041991  -1.284661   1.153978  -0.260533   1.341245  -0.294606   2.888091  -5.810640   4.265835   6.822184   3.045610  25.936388   0.096735   5.524131  -0.031181   2.801724   0.918530  -1.978338   2.943397   4.102687  -5.837787  10.760992  -0.548419 -25.098362   0.093417  -4.922641   0.041741   2.901450  -2.333431   1.411715 -15.166535  -2.996355   3.539284   5.660142  -0.010906  -0.008730  -3.035550  -3.436508  -2.917467  -0.140405   0.000044  -0.000246 -14.950307   2.216070   2.111602   8.185564  -0.002351   0.023642 -10.639186   4.200357  -2.260545   2.187302   0.001742   0.006149
 -2.383931   0.924726   3.966480  10.195765   0.132414  -1.044378  -9.193575  -0.801745  -0.754085   1.311193  -1.394589   1.124558  -0.257064   1.343479  -0.358599   3.250944  -6.176115   4.416985   7.600537   3.430596  28.967553   0.095027   6.120353  -0.029072   3.162823   1.012186  -0.893285   3.175201   4.625481  -6.371243  11.860326  -1.095346 -28.314541   0.094026  -5.470188   0.040042   3.227400  -2.648131   0.327332 -16.051103  -3.399316   3.864984   6.661886  -0.013578  -0.012122  -3.456065  -4.018609  -3.355561  -0.089856   0.000008  -0.000736 -16.351157   2.731882   2.138526  10.689969  -0.001903   0.024861 -12.518548   4.657953  -2.416932   2.214732   0.001431   0.005081
 -2.384453   0.922846   3.967576  10.389698  -0.227845  -0.802409  -9.762859  -0.720120  -0.956654   1.518354  -1.474688   1.064485  -0.263543   1.345691  -0.416543   3.592677  -6.541245   4.475832   8.315323   3.799868  31.735029   0.090605   6.670252  -0.025595   3.503487   1.071940   0.026271   3.413481   5.157819  -6.840993  12.871472  -1.623528 -31.293660   0.091425  -5.969114   0.037149   3.529510  -2.897145  -0.678059 -16.830738  -3.780695   4.199513   7.617413  -0.015983  -0.015166  -3.851699  -4.559079  -3.768575  -0.038693  -0.000053  -0.001152 -17.594434   3.217582   2.138232  13.137550  -0.001537   0.022626 -14.256191   5.089928  -2.552165   2.246481   0.001181   0.004208
 -2.384953   0.920552   3.969053  10.516351  -0.650832  -0.513815 -10.353557  -0.633256  -1.166119   1.673502  -1.539539   0.980034  -0.280269   1.347709  -0.470423   3.917718  -6.906614   4.467462   8.975213   4.150166  34.270206   0.084583   7.175973  -0.021521   3.825791   1.090728   0.811329   3.656193   5.687484  -7.257036  13.802096  -2.135242 -34.055461   0.086764  -6.424783   0.033771   3.811795  -3.086387  -1.611978 -17.530969  -4.141660   4.539967   8.520340  -0.018039  -0.017573  -4.223935  -5.060845  -4.157827   0.011666  -0.000130  -0.001479 -18.696628   3.677155   2.111031  15.508597  -0.001446   0.018552 -15.866743   5.497340  -2.669671   2.279136   0.000978   0.003479
 -2.385445   0.917900   3.970804  10.584892  -1.115657  -0.186621 -10.951721  -0.548668  -1.379271   1.788043  -1.598028   0.877415  -0.305156   1.349534  -0.521154   4.227704  -7.268642   4.409844   9.585909   4.482273  36.598291   0.077766   7.641157  -0.017357   4.132283   1.072744   1.487965   3.899087   6.202948  -7.627407  14.657192  -2.634151 -36.617079   0.080903  -6.843184   0.030342   4.077914  -3.233153  -2.482262 -18.169250  -4.483223   4.884277   9.368911  -0.019702  -0.019269  -4.574024  -5.526645  -4.524508   0.060573  -0.000216  -0.001719 -19.672220   4.114163   2.058068  17.796732  -0.001669   0.013676 -17.361120   5.881309  -2.772304   2.311329   0.000810   0.002867
 -2.385711   0.915805   3.972278  10.875850  -1.442475   0.116264 -11.561833  -0.628531  -1.398977   1.730129  -1.698177   0.686971  -0.411726   1.228845  -0.689101   4.440510  -7.632913   3.965219   9.999139   4.823305  38.392980   0.069268   8.134897  -0.012952   4.266353   1.013915   2.952297   4.145320   6.901366  -7.513029  15.427545  -3.169427 -38.926793   0.078048  -7.494517   0.028410   4.277177  -3.602213  -4.074735 -18.765475  -4.636454   5.148890   9.570547  -0.016796  -0.016125  -4.964635  -6.110854  -4.795126   0.424176  -0.001123  -0.004879 -20.415736   4.421283   1.932506  18.901433  -0.001407   0.010211 -17.320518   6.049821  -2.823402   2.709655   0.000596   0.002701
 -2.385999   0.914179   3.973249  11.277446  -1.667927   0.362780 -12.108069  -0.735248  -1.338412   1.645906  -1.806937   0.533155  -0.534950   1.106607  -0.848883   4.599192  -7.935154   3.268007  10.358190   5.155706  39.858848   0.059929   8.603989  -0.009897   4.382121   0.989080   4.134519   4.350922   7.525027  -7.163802  16.123964  -3.690252 -40.915737   0.071842  -8.113809   0.026371   4.450045  -4.085315  -5.466863 -19.376420  -4.774833   5.384344   9.663037  -0.013841  -0.013141  -5.338917  -6.653892  -5.052589   0.738215  -0.001589  -0.006507 -21.150414   4.695984   1.839402  19.687055  -0.001143   0.008167 -17.323434   6.200268  -2.861065   3.179707   0.000419   0.002832
